<svg width="500" height="500" viewBox="0 0 500 500" fill="none" xmlns="http://www.w3.org/2000/svg">
    <g id="Frame 1">
        <path id="sign"
            d="M38.5 327.5C48.8194 313.053 58.3734 298.135 66.3056 282.222C71.4266 271.949 75.8632 261.322 80.5833 250.861C83.4539 244.499 86.4407 238.154 88.6667 231.528C91.0637 224.392 92.7126 216.679 93.7778 209.222C94.0374 207.405 94.8675 203.113 92.5556 202.111C86.6968 199.572 79.3631 202.946 74.3056 205.667C66.4952 209.868 59.1194 217.357 55.5 225.583C52.461 232.49 56.8581 237.526 62.7222 240.917C73.5909 247.2 86.3798 248.37 97.4722 253.917C103.002 256.682 108.11 261.226 108.889 267.667C110.137 277.993 103.744 284.916 95.0556 289.222C82.6696 295.36 71.2864 295.762 58.7778 289.944C52.7419 287.137 46.286 283.069 42.5278 277.333C40.3599 274.024 38.1331 268.229 39.1111 264.167C39.4801 262.634 43.557 265.962 43.6111 266C51.3393 271.421 58.3398 277.819 66.1667 283.111C77.6112 290.849 97.9596 301.183 110.778 290.667C117.648 285.031 121.032 276.188 123.278 267.889C126.016 257.769 127.668 247.132 128.278 236.667C128.765 228.306 129.134 218.782 124.472 211.444C122.402 208.185 119.696 204.899 115.611 204.528C112.623 204.256 113.255 207.398 113.333 209.778C113.715 221.309 114.915 234.377 118.722 245.389C120.715 251.153 124.313 256.84 129.194 260.556C130.467 261.524 133.717 264.063 135.194 262.056C137.88 258.406 138.169 251.991 138.944 247.694C139.638 243.854 140.442 239.987 140.917 236.111C140.931 235.996 140.857 234.037 141.056 233.889C141.837 233.303 151.65 252.298 152.361 253.611C153.599 255.9 156.767 263.171 160.611 262.333C166.738 260.998 166.044 246.792 165.556 242.722C165.012 238.196 162.871 233.934 158 233.111C157.701 233.061 154.347 232.639 154.111 233.111C153.258 234.818 163.1 239.844 164.139 240.333C168.014 242.157 174.521 241.931 176.667 246.222C178.82 250.529 177.763 256.741 180.861 260.583C184.952 265.656 190.385 255.116 191.5 252.722C194.623 246.013 196.428 238.95 196.5 231.556C196.511 230.449 196.447 229.328 196.5 228.222C196.6 226.122 196.874 232.411 197.111 234.5C198.057 242.836 199.022 264.393 213.222 257.556C219.18 254.687 222.594 247.427 225.389 241.778C227.12 238.28 228.699 234.48 228.5 230.5C228.456 229.627 226.547 229.95 226 230.111C223.463 230.857 226.331 234.554 227.056 235.444C232.58 242.231 239.997 247.08 246.278 253.083C246.855 253.635 249.921 255.859 250.056 256.889C250.306 258.807 247.284 261.382 246.139 262.444C242.598 265.729 238.267 267.684 234.333 270.389C229.812 273.497 239.609 268.236 239.944 268C253.371 258.556 258.542 241.49 262.139 226.25C265.654 211.356 268.073 196.023 269.917 180.833C270.159 178.84 270.994 175.133 269.222 173.361C261.901 166.04 261.167 188.011 261.167 189.889C261.167 201.276 263.888 213.445 269.833 223.278C271.813 226.553 281.976 241.101 287.389 236.5C291.276 233.196 298.013 202.494 289.694 205.417C287.539 206.174 286.713 208.959 286.167 210.889C283.455 220.467 282.955 230.906 284.5 240.722C285.568 247.507 287.494 255.557 293.111 260.111C295.957 262.418 299.507 263.903 302.722 265.611C303.748 266.156 305.9 267.1 304.444 268.556C298.125 274.875 286.017 277.763 278.056 280.389C253.424 288.513 228.523 295.213 204.333 304.722C177.043 315.45 150.126 327.586 124.722 342.278C113.211 348.935 102.161 356.36 90.7222 363.139C86.0073 365.933 80.9773 369.09 75.8056 371.056C75.5744 371.143 73.1105 372.047 74.4167 370.944C80.6338 365.699 87.767 361.254 94.5833 356.889C110.323 346.811 126.625 337.936 143.611 330.139C155.092 324.868 166.842 319.506 179.306 317.028C180.145 316.861 187.577 314.65 187.667 317.389C187.847 322.894 183.857 329.553 181.333 334.139C175.278 345.143 166.946 354.665 159.444 364.667C152.774 373.56 170.735 374.138 175.611 373.889C205.959 372.341 236.197 357.648 261.389 341.444C266.992 337.84 271.066 333.229 276 329"
            stroke="black" stroke-linecap="round" stroke-linejoin="round" />
    </g>
</svg>