<svg width="500" height="500" viewBox="0 0 500 500" fill="none" xmlns="http://www.w3.org/2000/svg">
    <g id="Frame 1">
        <path id="sign"
            d="M135.5 289.5C146.276 260.528 155.548 231.412 161.972 201.167C166.193 181.295 171.738 161.744 175.944 141.861C176.657 138.494 177.579 135.296 177.5 131.833C177.476 130.756 176.943 131.025 177.028 131.917C177.191 133.632 177.739 135.321 178.278 136.944C180.482 143.586 183.046 150.085 185.111 156.778C190.373 173.831 195.271 191.057 199.75 208.333C202.117 217.463 204.617 226.399 207.611 235.333C209.282 240.32 213.458 255.504 212.5 250.333C209.207 232.55 202.804 213.335 188.583 201.417C183.307 196.995 178.382 192.47 171.944 189.889C164.455 186.885 157.972 185.134 149.806 185.611C130.52 186.737 116.917 206.953 116.917 225.194C116.917 237.008 120.251 249.322 127.528 258.75C130.647 262.792 134.345 266.732 139.056 268.944C146.962 272.658 156.786 272.237 165.111 270.5C173.92 268.662 182.325 264.794 190.333 260.833C207.942 252.125 224.251 241.417 239.028 228.444C252.409 216.697 263.466 203.225 264.167 184.722C264.447 177.311 262.891 167.336 257.472 161.75C251.742 155.844 242.869 154.896 235.056 155.222C215.485 156.041 192.755 175.006 197.722 196.167C201.763 213.381 215.286 224.426 231.667 229.722C241.22 232.811 259.209 237.055 267.111 227.889C271.418 222.893 273.249 216.105 272.667 209.611C272.598 208.85 270.246 202.11 270.222 202.167C269.699 203.388 271.107 206.873 271.361 207.75C272.608 212.056 273.911 216.389 275.5 220.583C276.477 223.162 278.334 228.88 281.889 229.167C287.56 229.624 287 208.666 287 204.611C287 203.723 288.951 206.53 289.222 206.833C292.118 210.07 294.749 213.914 298.333 216.444C311.879 226.006 310.826 194.764 310 188.278C309.64 185.448 309.521 181.786 306.889 180C306.387 179.659 304.151 178.934 303.889 179.833C303.412 181.47 304.52 184.406 304.944 185.833C306.328 190.492 308.174 195.095 310.222 199.5C311.347 201.92 313.992 209.142 317.333 209.833C322.628 210.929 326.152 192.105 325.472 188.028C325.292 186.948 323.479 187.691 322.944 187.944C320.119 189.283 317.242 192.188 316.139 195.167C314.963 198.343 319.209 199.1 321.389 199.056C327.288 198.935 331.977 194.132 334.528 189.194C335.568 187.181 335.5 185.188 335.5 183C335.5 182.498 336.701 186.037 336.833 186.361C337.969 189.132 339.626 192.668 342.611 193.889C346.926 195.654 349.728 192.867 351.278 189.111C351.996 187.371 352.233 181.757 352.556 183.611C353.168 187.131 352.851 193.032 355.444 195.778C360.987 201.646 367.11 181.246 365.167 176.611C364.286 174.511 361.76 173.428 359.583 173.583C356.441 173.808 355.851 178.636 356.222 180.944C356.839 184.782 361.166 185.32 364.361 185.472C365.721 185.537 368.488 184.962 369.278 186.5C370.149 188.197 369.17 190.58 369.806 192.417C370.374 194.058 372.495 194.543 370.389 196.278C364.993 200.724 358.322 204.361 352.389 207.833C326.255 223.126 299.413 237.189 272.917 251.833C231.512 274.718 191.311 298.909 153.167 326.944C130.503 343.602 108.482 361.138 86 378"
            stroke="black" stroke-linecap="round" stroke-linejoin="round" />
    </g>
</svg>