<svg width="500" height="100" viewBox="0 0 500 100" fill="none" xmlns="http://www.w3.org/2000/svg">
    <g id="Frame 1">
        <rect width="500" height="100" fill="white" />
        <g id="facebook">
            <circle id="facebook-c" cx="113" cy="50" r="24.5" fill="#3239F3" stroke="#3239F3" />
            <path id="facebook-icon"
                d="M118.261 39.9812H121V35.2112C120.528 35.1462 118.903 35 117.01 35C113.062 35 110.357 37.4837 110.357 42.0487V46.25H106V51.5825H110.357V65H115.699V51.5838H119.88L120.544 46.2513H115.698V42.5775C115.699 41.0362 116.114 39.9812 118.261 39.9812V39.9812Z"
                fill="white" />
        </g>
        <g id="instagram">
            <circle id="insta-c" cx="250" cy="50" r="24.5" fill="#EC5252" stroke="#EC5252" />
            <path id="insta-frame"
                d="M264.924 43.8201C264.853 42.2261 264.596 41.1302 264.226 40.1806C263.845 39.1727 263.259 38.2702 262.491 37.52C261.741 36.7582 260.832 36.1662 259.836 35.7912C258.881 35.4219 257.79 35.1641 256.196 35.0939C254.59 35.0176 254.08 35 250.006 35C245.932 35 245.422 35.0176 243.822 35.0879C242.227 35.1582 241.131 35.4162 240.182 35.7852C239.173 36.1662 238.271 36.7522 237.521 37.52C236.758 38.2702 236.167 39.1786 235.791 40.1749C235.422 41.1302 235.164 42.2201 235.094 43.8142C235.018 45.4201 235 45.9299 235 50.003C235 54.0761 235.018 54.5859 235.088 56.1858C235.158 57.7799 235.416 58.8757 235.786 59.8253C236.167 60.8333 236.758 61.7357 237.521 62.4859C238.271 63.2478 239.179 63.8398 240.176 64.2148C241.131 64.584 242.222 64.8418 243.816 64.9121C245.416 64.9826 245.926 65 250 65C254.074 65 254.584 64.9826 256.184 64.9121C257.778 64.8418 258.875 64.584 259.824 64.2148C261.841 63.4353 263.435 61.8413 264.215 59.8253C264.584 58.87 264.842 57.7799 264.912 56.1858C264.982 54.5859 265 54.0761 265 50.003C265 45.9299 264.994 45.4201 264.924 43.8201ZM262.222 56.0686C262.157 57.5338 261.911 58.3249 261.706 58.8524C261.202 60.1593 260.164 61.1966 258.857 61.7007C258.329 61.9058 257.532 62.1519 256.073 62.2162C254.49 62.2868 254.015 62.3042 250.012 62.3042C246.008 62.3042 245.528 62.2868 243.951 62.2162C242.485 62.1519 241.694 61.9058 241.166 61.7007C240.516 61.4603 239.924 61.0794 239.443 60.5812C238.945 60.0948 238.564 59.5087 238.324 58.8583C238.118 58.3309 237.872 57.5338 237.808 56.0746C237.737 54.4922 237.72 54.0174 237.72 50.0147C237.72 46.0119 237.737 45.5313 237.808 43.9549C237.872 42.4898 238.118 41.6986 238.324 41.1712C238.564 40.5206 238.945 39.9288 239.449 39.4481C239.935 38.9499 240.522 38.569 241.172 38.3288C241.7 38.1237 242.497 37.8776 243.957 37.8131C245.539 37.7428 246.014 37.7252 250.018 37.7252C254.027 37.7252 254.502 37.7428 256.079 37.8131C257.544 37.8776 258.335 38.1237 258.863 38.3288C259.513 38.569 260.106 38.9499 260.586 39.4481C261.084 39.9345 261.465 40.5206 261.706 41.1712C261.911 41.6986 262.157 42.4955 262.222 43.9549C262.292 45.5373 262.31 46.0119 262.31 50.0147C262.31 54.0174 262.292 54.4863 262.222 56.0686Z"
                fill="white" />
            <path id="insta-circle"
                d="M250 51C245.583 51 242 50.7761 242 50.5C242 50.2239 245.583 50 250 50C254.417 50 258 50.2239 258 50.5C258 50.7761 254.417 51 250 51ZM250 50.1757C247.135 50.1757 244.811 50.3209 244.811 50.5C244.811 50.6791 247.135 50.8243 250 50.8243C252.865 50.8243 255.189 50.6791 255.189 50.5C255.189 50.3209 252.865 50.1757 250 50.1757V50.1757Z"
                fill="white" />
            <path id="insta-dot"
                d="M259.818 41.9916C259.818 42.9852 259.013 43.7908 258.019 43.7908C257.025 43.7908 256.219 42.9852 256.219 41.9916C256.219 40.9979 257.025 40.1925 258.019 40.1925C259.013 40.1925 259.818 40.9979 259.818 41.9916V41.9916Z"
                fill="white" />
        </g>
        <g id="twitter">
            <circle id="twitter-c" cx="387" cy="50" r="24.5" fill="#78E7FF" stroke="#78E7FF" />
            <path id="twitter-icon"
                d="M380.706 65C376.712 65 372.845 63.8538 369.521 61.6843C368.509 61.0243 369.088 59.4026 370.26 59.5657C372.526 59.8519 375.072 59.4749 377.373 58.3441C375.257 57.4394 373.564 55.6331 372.816 53.3221C372.682 52.9067 372.786 52.4405 373.103 52.1267C371.403 50.6127 370.347 48.394 370.347 45.98C370.347 45.4153 370.719 44.8938 371.322 44.7845C370.055 42.3828 370.04 39.4087 371.497 36.8423C371.892 36.1469 372.834 36.0746 373.331 36.6885C376.355 40.4519 380.692 42.8736 385.387 43.4629C385.248 40.3857 386.793 37.5701 389.572 36.0315C392.752 34.2683 396.525 34.8037 399.06 37.3455C400.302 37.704 401.509 37.4947 402.832 36.6946C403.589 36.2438 404.522 36.8054 404.522 37.6901C404.522 39.998 402.865 42.3659 401.456 43.606C401.558 49.0818 399.513 54.4776 395.797 58.4933C391.913 62.689 386.554 65 380.706 65Z"
                fill="#18DAF4" />
        </g>
    </g>
</svg>