<svg width="400" height="400" viewBox="0 0 400 400" fill="none" xmlns="http://www.w3.org/2000/svg">
<rect width="400" height="400" fill="#E5E5E5"/>
<g id="Frame 1">
<rect width="400" height="400" fill="white"/>
<line id="Line 1" x1="210" y1="49" x2="345" y2="49" stroke="#4DFE0F" stroke-width="6"/>
<path id="Arrow 1" d="M345.909 85.1933C346.568 84.6914 346.695 83.7502 346.193 83.0912L338.014 72.3512C337.512 71.6922 336.571 71.5648 335.912 72.0667C335.253 72.5686 335.125 73.5098 335.627 74.1689L342.898 83.7155L333.351 90.9861C332.692 91.488 332.565 92.4292 333.067 93.0883C333.569 93.7473 334.51 93.8747 335.169 93.3728L345.909 85.1933ZM211.799 67.4864L344.799 85.4864L345.201 82.5136L212.201 64.5136L211.799 67.4864Z" fill="black"/>
<g id="CircleAndRectangle">
<rect id="Rectangle 1" x="25" y="112" width="135" height="79" rx="32" fill="#951A1A"/>
<circle id="Circle" cx="90.5" cy="152.5" r="50.5" stroke="#E7FA0F" stroke-width="16"/>
</g>
<path id="triangle" d="M325.5 146L375.296 213.5H275.704L325.5 146Z" fill="#231FFB"/>
<path id="star" d="M105.5 274L119.083 307.858L163.039 307.858L127.478 328.784L141.061 362.642L105.5 341.716L69.939 362.642L83.5221 328.784L47.9611 307.858L91.9169 307.858L105.5 274Z" fill="url(#paint0_linear)"/>
<path id="weirdshape" d="M231.781 265.562C240.675 241.177 183.122 320.672 231.781 359.201C280.44 397.729 414.906 352.861 333.284 359.201C251.663 365.541 333.284 270.764 333.284 270.764C296.575 308.1 222.886 289.947 231.781 265.562Z" fill="#87C8EC" stroke="black"/>
<path id="Vector 2" d="M184.667 103.667C196.511 105.549 207.915 105.905 218.741 111.519C222.04 113.229 222.523 118.092 219.407 120.111C210.607 125.813 202.158 127 191.852 127C189.012 127 186.173 127 183.333 127C180.677 127 178.527 126.037 178.704 129.222C179.009 134.709 180.401 140.537 181.444 145.926C182.31 150.398 189.012 149.667 192.296 149.667C196.631 149.667 200.838 149 205.185 149C210.412 149 216.518 150.452 216.667 156.852C216.869 165.561 200.049 167.667 193.815 167.667C188.704 167.667 186.381 167.952 182.704 171.63C178.001 176.333 179.369 183.387 184.815 186.333C191.996 190.218 196.149 182.809 202.815 182.333C206.44 182.074 213.333 183.328 213.333 187.963C213.333 192.792 213.601 194.771 210.296 198.296C205.611 203.294 197.284 199.515 192.148 203C188.904 205.201 185.955 208.378 183.185 211.148C182.194 212.14 180.551 213.255 181.926 214.63C184.31 217.014 188.57 220.247 191.963 220.926C193.846 221.303 197.832 221.484 199.63 220.667C202.489 219.367 205.188 218.063 208.333 219.704C212.672 221.967 214.282 227.388 218.37 229.296C224.56 232.185 228.094 225.382 230.667 221.296C234.14 215.779 232.679 208.97 230 203.296C229.421 202.07 229.066 201.065 229.481 199.667C229.92 198.192 231.069 196.988 232 195.815C233.6 193.799 234.214 191.648 235.37 189.407C238.544 183.258 238.063 175.407 233.889 169.667C232.912 168.324 230.945 167.248 231.37 165.333C232.1 162.048 237.35 160.499 239.556 158.481C243.186 155.16 243.441 151.458 240.37 146.852C238.405 143.904 235.767 141.207 233.333 138.63C230.842 135.992 232.948 133.693 234.667 131.037C238.329 125.378 242.063 121.975 237.593 115.926C234.242 111.393 227.572 110.921 227.333 104.481C227.204 100.987 221.559 99.9868 219.111 99C213.863 96.8844 208.685 94.9297 203.111 93.8148C201.622 93.5169 200.031 93.6667 198.519 93.6667C195.886 93.6667 196.485 94.2809 194.926 95.6667C193.273 97.1361 190.349 100.377 188.296 100.963C187.23 101.268 184.416 101.502 184 102.333" stroke="black" stroke-linecap="round" stroke-linejoin="round"/>
<path id="SVG IMAGES" d="M137.088 22.5635C135.962 22.2399 135.142 21.8434 134.627 21.374C134.117 20.9001 133.861 20.3167 133.861 19.624C133.861 18.8402 134.174 18.193 134.798 17.6826C135.427 17.1676 136.243 16.9102 137.245 16.9102C137.929 16.9102 138.537 17.0423 139.07 17.3066C139.608 17.571 140.023 17.9355 140.314 18.4004C140.611 18.8652 140.759 19.3734 140.759 19.9248H139.439C139.439 19.3232 139.248 18.8516 138.865 18.5098C138.482 18.1634 137.942 17.9902 137.245 17.9902C136.598 17.9902 136.092 18.1338 135.728 18.4209C135.368 18.7035 135.188 19.0977 135.188 19.6035C135.188 20.0091 135.358 20.3532 135.7 20.6357C136.047 20.9137 136.632 21.1689 137.457 21.4014C138.286 21.6338 138.934 21.8913 139.398 22.1738C139.868 22.4518 140.214 22.7777 140.438 23.1514C140.665 23.5251 140.779 23.9648 140.779 24.4707C140.779 25.2773 140.465 25.9245 139.836 26.4121C139.207 26.8952 138.366 27.1367 137.313 27.1367C136.63 27.1367 135.992 27.0068 135.399 26.7471C134.807 26.4827 134.349 26.1227 134.025 25.667C133.706 25.2113 133.547 24.694 133.547 24.1152H134.866C134.866 24.7168 135.087 25.193 135.529 25.5439C135.976 25.8903 136.571 26.0635 137.313 26.0635C138.006 26.0635 138.537 25.9222 138.906 25.6396C139.275 25.3571 139.46 24.972 139.46 24.4844C139.46 23.9967 139.289 23.6208 138.947 23.3564C138.605 23.0876 137.986 22.8232 137.088 22.5635ZM145.763 25.2568L148.606 17.0469H150.042L146.351 27H145.188L141.504 17.0469H142.933L145.763 25.2568ZM158.635 25.6943C158.298 26.1774 157.826 26.5397 157.22 26.7812C156.618 27.0182 155.916 27.1367 155.114 27.1367C154.303 27.1367 153.583 26.9476 152.954 26.5693C152.325 26.1865 151.838 25.6442 151.491 24.9424C151.149 24.2406 150.974 23.4271 150.965 22.502V21.6338C150.965 20.1344 151.313 18.9723 152.011 18.1475C152.713 17.3226 153.697 16.9102 154.964 16.9102C156.003 16.9102 156.839 17.1768 157.473 17.71C158.106 18.2386 158.493 18.9906 158.635 19.9658H157.322C157.076 18.6488 156.292 17.9902 154.971 17.9902C154.091 17.9902 153.424 18.3001 152.968 18.9199C152.517 19.5352 152.289 20.4284 152.284 21.5996V22.4131C152.284 23.5296 152.539 24.4183 153.05 25.0791C153.56 25.7354 154.251 26.0635 155.121 26.0635C155.613 26.0635 156.044 26.0088 156.413 25.8994C156.782 25.79 157.088 25.6055 157.329 25.3457V23.1104H155.025V22.0439H158.635V25.6943ZM165.71 27H164.397V17.0469H165.71V27ZM169.812 17.0469L173.065 25.168L176.319 17.0469H178.021V27H176.709V23.124L176.832 18.9404L173.564 27H172.56L169.299 18.9609L169.429 23.124V27H168.116V17.0469H169.812ZM185.958 24.4023H181.788L180.852 27H179.498L183.299 17.0469H184.447L188.255 27H186.908L185.958 24.4023ZM182.185 23.3223H185.568L183.873 18.667L182.185 23.3223ZM196.861 25.6943C196.524 26.1774 196.052 26.5397 195.446 26.7812C194.845 27.0182 194.143 27.1367 193.341 27.1367C192.53 27.1367 191.81 26.9476 191.181 26.5693C190.552 26.1865 190.064 25.6442 189.718 24.9424C189.376 24.2406 189.201 23.4271 189.191 22.502V21.6338C189.191 20.1344 189.54 18.9723 190.237 18.1475C190.939 17.3226 191.924 16.9102 193.19 16.9102C194.229 16.9102 195.066 17.1768 195.699 17.71C196.333 18.2386 196.72 18.9906 196.861 19.9658H195.549C195.303 18.6488 194.519 17.9902 193.197 17.9902C192.318 17.9902 191.65 18.3001 191.194 18.9199C190.743 19.5352 190.515 20.4284 190.511 21.5996V22.4131C190.511 23.5296 190.766 24.4183 191.276 25.0791C191.787 25.7354 192.477 26.0635 193.348 26.0635C193.84 26.0635 194.271 26.0088 194.64 25.8994C195.009 25.79 195.314 25.6055 195.556 25.3457V23.1104H193.252V22.0439H196.861V25.6943ZM204.682 22.3994H200.368V25.9268H205.379V27H199.056V17.0469H205.311V18.127H200.368V21.3262H204.682V22.3994ZM209.945 22.5635C208.82 22.2399 207.999 21.8434 207.484 21.374C206.974 20.9001 206.719 20.3167 206.719 19.624C206.719 18.8402 207.031 18.193 207.655 17.6826C208.284 17.1676 209.1 16.9102 210.103 16.9102C210.786 16.9102 211.395 17.0423 211.928 17.3066C212.465 17.571 212.88 17.9355 213.172 18.4004C213.468 18.8652 213.616 19.3734 213.616 19.9248H212.297C212.297 19.3232 212.105 18.8516 211.723 18.5098C211.34 18.1634 210.8 17.9902 210.103 17.9902C209.455 17.9902 208.95 18.1338 208.585 18.4209C208.225 18.7035 208.045 19.0977 208.045 19.6035C208.045 20.0091 208.216 20.3532 208.558 20.6357C208.904 20.9137 209.49 21.1689 210.314 21.4014C211.144 21.6338 211.791 21.8913 212.256 22.1738C212.725 22.4518 213.072 22.7777 213.295 23.1514C213.523 23.5251 213.637 23.9648 213.637 24.4707C213.637 25.2773 213.322 25.9245 212.693 26.4121C212.064 26.8952 211.224 27.1367 210.171 27.1367C209.487 27.1367 208.849 27.0068 208.257 26.7471C207.664 26.4827 207.206 26.1227 206.883 25.667C206.564 25.2113 206.404 24.694 206.404 24.1152H207.724C207.724 24.7168 207.945 25.193 208.387 25.5439C208.833 25.8903 209.428 26.0635 210.171 26.0635C210.864 26.0635 211.395 25.9222 211.764 25.6396C212.133 25.3571 212.317 24.972 212.317 24.4844C212.317 23.9967 212.146 23.6208 211.805 23.3564C211.463 23.0876 210.843 22.8232 209.945 22.5635Z" fill="#E20F0F"/>
</g>
<defs>
<linearGradient id="paint0_linear" x1="105.5" y1="274" x2="105.5" y2="372" gradientUnits="userSpaceOnUse">
<stop stop-color="#C93838"/>
<stop offset="1" stop-color="#BF0BFE" stop-opacity="0"/>
</linearGradient>
</defs>
</svg>
